<svg width="31" height="27" viewBox="0 0 31 27" fill="none" xmlns="http://www.w3.org/2000/svg" >
<path d="M16.7541 26.0613C16.6681 26.0613 16.5861 26.0613 16.5041 26.0493C14.8291 25.9013 12.5101 23.6053 9.61414 19.2173C8.13813 17.0212 7.30674 14.4556 7.21415 11.8113C7.19396 11.2309 7.22273 10.6498 7.30015 10.0743C6.73415 9.49626 5.04015 7.56827 5.52015 5.53027C5.91115 3.86327 8.14315 3.09827 9.95115 2.75027C10.4555 2.65573 10.9768 2.75744 11.4087 3.03459C11.8405 3.31174 12.1501 3.7434 12.2741 4.24127C12.5046 5.69315 12.365 7.17972 11.8681 8.56328C11.844 9.55382 12.0055 10.5401 12.3441 11.4713C14.454 12.4463 16.3149 13.8879 17.7861 15.6873C18.4581 13.3993 20.5461 8.15728 25.5351 9.03528C26.4821 9.14106 27.3785 9.51728 28.1172 10.119C28.856 10.7207 29.4059 11.5224 29.7011 12.4283C30.0335 13.4922 30.102 14.6211 29.9008 15.7174C29.6996 16.8138 29.2347 17.8447 28.5462 18.7213C26.8211 20.5443 20.1461 26.0603 16.7561 26.0603L16.7541 26.0613ZM10.3202 3.60927C10.2507 3.60993 10.1814 3.61663 10.1132 3.62927C9.09415 3.82927 6.68914 4.42127 6.38514 5.73727C5.94414 7.61927 8.05215 9.57127 8.07115 9.59027C8.12672 9.64076 8.16875 9.70437 8.19338 9.7753C8.21802 9.84623 8.22447 9.92221 8.21215 9.99628C8.11922 10.5915 8.08272 11.1942 8.10314 11.7963C8.19145 14.2724 8.97197 16.6743 10.3561 18.7293C12.9791 22.7033 15.2562 25.0463 16.5832 25.1633C19.3902 25.4013 26.0891 20.0213 27.8921 18.1163C28.4623 17.3534 28.8455 16.4675 29.011 15.5296C29.1765 14.5918 29.1197 13.6282 28.8451 12.7163C28.5928 11.968 28.1317 11.3076 27.5161 10.813C26.9005 10.3185 26.1562 10.0104 25.3711 9.92528C19.9211 8.96528 18.4141 16.8083 18.3981 16.8863C18.3819 16.9775 18.3377 17.0614 18.2716 17.1263C18.2056 17.1912 18.1209 17.234 18.0294 17.2486C17.938 17.2632 17.8442 17.249 17.7612 17.2079C17.6782 17.1668 17.61 17.1009 17.5661 17.0193C15.9421 14.0563 11.8471 12.2373 11.8081 12.2193C11.7034 12.1716 11.62 12.0868 11.5742 11.9813C11.1371 10.8739 10.9299 9.68922 10.9651 8.49927C10.9658 8.45686 10.9725 8.41476 10.9851 8.37427C11.4534 7.1228 11.5946 5.77253 11.3952 4.45128C11.3367 4.21105 11.1991 3.99751 11.0044 3.84511C10.8097 3.69271 10.5694 3.61033 10.3222 3.61127L10.3202 3.60927Z" fill="white" fill-opacity="0.4"/>
<path d="M4.47908 9.84391C4.38627 9.84403 4.29574 9.8152 4.22009 9.76143C4.14445 9.70765 4.08747 9.63161 4.05708 9.54391L3.31108 7.40793C3.2918 7.35284 3.28355 7.29449 3.28684 7.23622C3.29012 7.17795 3.30488 7.12088 3.33023 7.06831C3.35559 7.01574 3.39106 6.96868 3.43462 6.92984C3.47818 6.89099 3.52896 6.86112 3.58408 6.84192L5.73908 6.08491C5.79511 6.06371 5.85481 6.05386 5.91469 6.05594C5.97457 6.05801 6.03343 6.07198 6.08786 6.09701C6.1423 6.12204 6.19122 6.15764 6.23177 6.20175C6.27232 6.24585 6.3037 6.29758 6.32408 6.35392C6.34384 6.41054 6.35199 6.47054 6.34807 6.53038C6.34415 6.59021 6.32825 6.64864 6.30129 6.70219C6.27432 6.75575 6.23685 6.80334 6.19112 6.84211C6.14539 6.88089 6.09232 6.91007 6.03508 6.92791L4.29808 7.53692L4.75109 8.83691L6.54308 8.20492C6.59843 8.18522 6.65711 8.17661 6.71579 8.17959C6.77447 8.18258 6.83199 8.19709 6.88506 8.2223C6.93813 8.24751 6.98571 8.28293 7.02509 8.32653C7.06447 8.37014 7.09488 8.42107 7.11458 8.47642C7.13428 8.53177 7.14288 8.59046 7.13989 8.64914C7.13691 8.70781 7.1224 8.76533 7.09718 8.8184C7.07197 8.87147 7.03657 8.91905 6.99297 8.95843C6.94937 8.99781 6.89843 9.02823 6.84308 9.04792L4.62908 9.82892C4.58075 9.84163 4.53105 9.84835 4.48108 9.84892L4.47908 9.84391Z" fill="white" fill-opacity="0.4"/>
<path d="M11.811 7.29081C11.7056 7.29099 11.6036 7.25382 11.5229 7.18592C11.4423 7.11802 11.3884 7.02376 11.3706 6.91985C11.3529 6.81595 11.3725 6.70911 11.426 6.61831C11.4796 6.5275 11.5635 6.4586 11.663 6.4238L14.298 5.4988L13.845 4.1988L11.99 4.84681C11.8782 4.88566 11.7556 4.87851 11.6491 4.82694C11.5426 4.77537 11.4609 4.68359 11.422 4.5718C11.3832 4.46001 11.3903 4.33738 11.4419 4.23086C11.4935 4.12434 11.5852 4.04266 11.697 4.00381L13.973 3.2038C14.0848 3.16472 14.2076 3.1715 14.3144 3.22266C14.4212 3.27382 14.5034 3.36519 14.543 3.4768L15.289 5.61581C15.3083 5.67089 15.3166 5.72924 15.3133 5.78751C15.31 5.84578 15.2952 5.90284 15.2699 5.9554C15.2445 6.00797 15.2091 6.05503 15.1655 6.09388C15.122 6.13273 15.0712 6.1626 15.016 6.1818L11.959 7.25181C11.9129 7.27384 11.8622 7.28479 11.811 7.2838V7.29081Z" fill="white" fill-opacity="0.4"/>
<path d="M16.1141 8.48891C15.8872 8.48922 15.6659 8.41866 15.481 8.28706C15.2962 8.15547 15.1571 7.96942 15.0831 7.75491L13.0611 1.93792C12.967 1.66415 12.9839 1.36439 13.1081 1.10291C13.1702 0.973669 13.2575 0.858113 13.3648 0.76299C13.4721 0.667868 13.5973 0.595094 13.7331 0.548917L15.1331 0.0609105C15.2685 0.0136685 15.4119 -0.00642093 15.555 0.00179037C15.6982 0.0100017 15.8383 0.0463572 15.9674 0.10877C16.0965 0.171182 16.212 0.258433 16.3074 0.365529C16.4027 0.472626 16.476 0.597466 16.5231 0.732915L18.5451 6.54992C18.6392 6.82369 18.6223 7.12344 18.4981 7.38492C18.436 7.51416 18.3487 7.62971 18.2414 7.72484C18.1341 7.81996 18.0089 7.89274 17.8731 7.93892L16.4731 8.42692C16.358 8.46859 16.2365 8.48957 16.1141 8.48891ZM15.4891 0.895917C15.4666 0.896173 15.4443 0.900223 15.4231 0.907911L14.0231 1.39592C13.9985 1.40419 13.9759 1.4173 13.9565 1.43448C13.9371 1.45165 13.9213 1.47254 13.9101 1.49592C13.8983 1.51931 13.8915 1.54491 13.8901 1.57107C13.8887 1.59724 13.8928 1.62341 13.9021 1.64792L15.9241 7.46491C15.942 7.51446 15.9787 7.55497 16.0262 7.57763C16.0738 7.60028 16.1283 7.60326 16.1781 7.58591L17.5781 7.09791C17.6031 7.08976 17.6262 7.0766 17.646 7.05923C17.6658 7.04187 17.6818 7.02065 17.6931 6.99689C17.7045 6.97313 17.7108 6.94732 17.7118 6.92102C17.7129 6.89472 17.7086 6.86849 17.6991 6.84392L15.6771 1.02691C15.663 0.988447 15.6373 0.955252 15.6037 0.931821C15.5701 0.908391 15.5301 0.89586 15.4891 0.895917Z" fill="white" fill-opacity="0.4"/>
<path d="M3.11309 13.0287C2.88619 13.029 2.66486 12.9585 2.48002 12.8269C2.29518 12.6953 2.15607 12.5092 2.0821 12.2947L0.0600966 6.47771C-0.034485 6.20424 -0.016882 5.90446 0.109062 5.64395C0.235006 5.38344 0.459029 5.18343 0.732094 5.08771L2.1321 4.59972C2.40503 4.50554 2.70414 4.52338 2.96394 4.64934C3.22373 4.7753 3.423 4.9991 3.51809 5.27171L5.54009 11.0887C5.63467 11.3622 5.61707 11.662 5.49113 11.9225C5.36518 12.183 5.14116 12.383 4.8681 12.4787L3.4681 12.9667C3.35252 13.0064 3.2313 13.0274 3.10909 13.0287H3.11309ZM2.48809 5.42871C2.46557 5.42897 2.44326 5.43302 2.4221 5.4407L1.0221 5.92871C0.997078 5.93686 0.973962 5.95002 0.954185 5.96739C0.934409 5.98476 0.918385 6.00598 0.907066 6.02974C0.895747 6.0535 0.889369 6.07931 0.888344 6.10561C0.887318 6.13191 0.891665 6.15814 0.9011 6.18271L2.92309 11.9997C2.93124 12.0247 2.94442 12.0478 2.96178 12.0676C2.97915 12.0874 3.00036 12.1034 3.02412 12.1147C3.04788 12.1261 3.0737 12.1324 3.1 12.1335C3.1263 12.1345 3.15253 12.1301 3.1771 12.1207L4.5771 11.6327C4.60212 11.6246 4.62522 11.6114 4.645 11.594C4.66477 11.5767 4.68081 11.5555 4.69213 11.5317C4.70345 11.5079 4.70981 11.4821 4.71084 11.4558C4.71186 11.4295 4.70753 11.4033 4.6981 11.3787L2.67609 5.56171C2.66185 5.52359 2.63633 5.49073 2.60291 5.4675C2.5695 5.44427 2.52979 5.43179 2.4891 5.43172L2.48809 5.42871Z" fill="white" fill-opacity="0.4"/>
</svg>
