<svg width="25" height="25" viewBox="0 0 25 25" fill="none" xmlns="http://www.w3.org/2000/svg">
<path d="M10.5745 5.49954C10.7774 4.58629 11.5874 3.93652 12.5229 3.93652H13.3127C14.2482 3.93652 15.0582 4.58629 15.2611 5.49954L15.4637 6.41093C16.1235 6.66925 16.7344 7.02501 17.2788 7.46053L18.1712 7.17965C19.0635 6.89878 20.0313 7.27538 20.499 8.08557L20.8939 8.7695C21.3616 9.57969 21.2039 10.6061 20.5145 11.2384L19.8257 11.8703C19.8772 12.2122 19.9038 12.5623 19.9038 12.9186C19.9038 13.2748 19.8772 13.6249 19.8257 13.9668L20.5145 14.5987C21.204 15.231 21.3617 16.2574 20.8939 17.0676L20.499 17.7515C20.0313 18.5617 19.0636 18.9383 18.1712 18.6575L17.2788 18.3766C16.7344 18.8121 16.1235 19.1679 15.4637 19.4262L15.2611 20.3376C15.0582 21.2508 14.2482 21.9006 13.3127 21.9006H12.5229C11.5874 21.9006 10.7774 21.2508 10.5745 20.3376L10.3719 19.4262C9.71211 19.1679 9.10117 18.8121 8.55681 18.3766L7.6644 18.6575C6.77203 18.9383 5.80431 18.5617 5.33655 17.7515L4.94168 17.0676C4.47392 16.2574 4.63163 15.231 5.32105 14.5987L6.0099 13.9668C5.95844 13.6249 5.93177 13.2748 5.93177 12.9186C5.93177 12.5623 5.95844 12.2122 6.0099 11.8703L5.32107 11.2384C4.63164 10.6061 4.47393 9.57969 4.9417 8.7695L5.33656 8.08557C5.80433 7.27539 6.77204 6.89878 7.66441 7.17965L8.55682 7.46053C9.10118 7.02502 9.71212 6.66925 10.3719 6.41093L10.5745 5.49954Z" stroke="#262135" stroke-width="1.99601" stroke-linecap="round" stroke-linejoin="round"/>
<path d="M13.9158 12.9186C13.9158 13.4697 13.469 13.9166 12.9178 13.9166C12.3666 13.9166 11.9198 13.4697 11.9198 12.9186C11.9198 12.3674 12.3666 11.9206 12.9178 11.9206C13.469 11.9206 13.9158 12.3674 13.9158 12.9186Z" stroke="#262135" stroke-width="1.99601" stroke-linecap="round" stroke-linejoin="round"/>
</svg>
