<svg width="25" height="25" viewBox="0 0 25 25" fill="none" xmlns="http://www.w3.org/2000/svg">
<path d="M10.4783 5.49075C10.6812 4.5775 11.4912 3.92773 12.4267 3.92773H13.2165C14.152 3.92773 14.962 4.5775 15.165 5.49075L15.3675 6.40214C16.0273 6.66046 16.6382 7.01622 17.1826 7.45174L18.075 7.17086C18.9673 6.88999 19.9351 7.26659 20.4028 8.07678L20.7977 8.76071C21.2655 9.5709 21.1077 10.5973 20.4183 11.2296L19.7295 11.8615C19.781 12.2034 19.8076 12.5535 19.8076 12.9098C19.8076 13.2661 19.781 13.6161 19.7295 13.958L20.4183 14.5899C21.1078 15.2223 21.2655 16.2486 20.7977 17.0588L20.4028 17.7427C19.9351 18.5529 18.9674 18.9295 18.075 18.6487L17.1826 18.3678C16.6382 18.8033 16.0273 19.1591 15.3675 19.4174L15.165 20.3288C14.962 21.242 14.152 21.8918 13.2165 21.8918H12.4267C11.4912 21.8918 10.6812 21.242 10.4783 20.3288L10.2757 19.4174C9.61592 19.1591 9.00498 18.8033 8.46062 18.3678L7.56821 18.6487C6.67584 18.9295 5.70812 18.5529 5.24036 17.7427L4.84549 17.0588C4.37773 16.2486 4.53544 15.2223 5.22486 14.5899L5.91371 13.958C5.86225 13.6161 5.83558 13.266 5.83558 12.9098C5.83558 12.5535 5.86225 12.2034 5.91371 11.8615L5.22488 11.2297C4.53545 10.5973 4.37774 9.5709 4.84551 8.76071L5.24037 8.07679C5.70814 7.2666 6.67585 6.88999 7.56822 7.17086L8.46063 7.45174C9.00499 7.01623 9.61593 6.66046 10.2757 6.40214L10.4783 5.49075Z" stroke="white" stroke-opacity="0.4" stroke-width="1.99601" stroke-linecap="round" stroke-linejoin="round"/>
<path d="M13.8196 12.9098C13.8196 13.4609 13.3728 13.9078 12.8216 13.9078C12.2704 13.9078 11.8236 13.4609 11.8236 12.9098C11.8236 12.3586 12.2704 11.9118 12.8216 11.9118C13.3728 11.9118 13.8196 12.3586 13.8196 12.9098Z" stroke="white" stroke-opacity="0.4" stroke-width="1.99601" stroke-linecap="round" stroke-linejoin="round"/>
</svg>
